<?xml version="1.0" standalone="no"?>
<!DOCTYPE svg PUBLIC "-//W3C//DTD SVG 1.1//EN" "http://www.w3.org/Graphics/SVG/1.1/DTD/svg11.dtd" >
<svg>
<metadata>
Created by FontForge 20090622 at Thu May  9 16:48:03 2013
 By ffonts
Brittany
</metadata>
<defs>
<font id="BDRouen" horiz-adv-x="469" >
  <font-face 
    font-family="BDRouen"
    font-weight="500"
    font-stretch="normal"
    units-per-em="1000"
    panose-1="2 0 6 3 0 0 0 0 0 0"
    ascent="800"
    descent="-200"
    x-height="473"
    cap-height="699.5"
    bbox="-30.0244 -260 650 780"
    underline-thickness="50"
    underline-position="-100"
    unicode-range="U+0020-U+3000"
  />
<missing-glyph horiz-adv-x="364" 
d="M66 33h199v600h-199v-600zM33 0v666h265v-666h-265z" />
    <glyph glyph-name=".notdef" horiz-adv-x="364" 
d="M66 33h199v600h-199v-600zM33 0v666h265v-666h-265z" />
    <glyph glyph-name=".null" horiz-adv-x="0" 
 />
    <glyph glyph-name="nonmarkingreturn" horiz-adv-x="333" 
 />
    <glyph glyph-name="space" unicode=" " horiz-adv-x="300" 
 />
    <glyph glyph-name="exclam" unicode="!" horiz-adv-x="257" 
d="M157 701q-7 -28 -9 -58.5t-0.5 -82t1.5 -63.5q0 -27 -3 -68q-4 -52 -5 -67q-2 -34 1 -93q4 -79 4 -95q0 -15 -15 -15t-15 15q0 14 -4 94q-3 60 -1 96q1 15 5 67q3 41 3 66q0 15 -1 49.5t-1 56.5t2.5 52t7.5 54q2 6 7.5 9t11.5 1.5t9 -7t2 -11.5zM149 16q0 -15 -15 -15
t-15 15t15 15t15 -15z" />
    <glyph glyph-name="quotedbl" unicode="&#x22;" horiz-adv-x="311" 
d="M111 694q0 -22 3.5 -68t4.5 -55q5 -81 -10 -126q-2 -6 -7.5 -9t-11 -1t-8.5 7.5t-1 10.5q12 41 8 116q-1 8 -4.5 55.5t-3.5 69.5q0 15 15 15t15 -15zM205 690q0 -40 3 -120.5t3 -120.5q0 -15 -15 -15t-15 15q0 40 -3 120.5t-3 120.5q0 15 15 15t15 -15z" />
    <glyph glyph-name="numbersign" unicode="#" horiz-adv-x="416" 
d="M200 451l-31 -2q-20 -2 -43 -5q-13 -124 -15 -173v-12l73 4q2 41 5 84t11 104zM26 459q13 1 64 9l8 2q2 23 4 41q1 8 3 57t7 80t17 58q6 14 20 8t8 -20q-11 -26 -15 -52q-5 -28 -7 -74t-3 -59q-1 -16 -3 -35q20 3 37 5q21 2 38 2l6 41q15 107 15 171q0 15 15 15t15 -15
q0 -66 -15 -176l-5 -36q46 -3 73 -19q13 -7 6 -20t-20 -6q-23 13 -63 15q-9 -61 -12 -106q-3 -44 -5 -82q28 1 53 1q15 0 15 -15t-15 -15q-26 0 -54 -1q-3 -91 -3 -231q0 -15 -15 -15t-15 15q0 138 3 231l-73 -4q-1 -17 -1.5 -48.5t-0.5 -44.5q-1 -83 -8 -138q-1 -6 -6 -10
t-11 -3t-10 6t-3 11q7 53 8 134q0 13 0.5 44t1.5 48q-31 -2 -67 -5q-6 0 -11 4t-5 10t4 10.5t10 5.5q37 3 69 5q1 7 1 15q2 50 14 166h-1l-64 -10q-6 -1 -11 3t-6 10t3 11t10 6z" />
    <glyph glyph-name="dollar" unicode="$" horiz-adv-x="474" 
d="M190 371q0 9 4 95t5 130q1 26 0 60q-12 -4 -23 -11q-39 -24 -63 -69t-19 -96q3 -36 26.5 -59.5t69.5 -49.5zM218 321q-6 -177 6 -298q64 1 93 31q30 31 27 99q-3 62 -35 98.5t-91 69.5zM322 608q-28 45 -70 54q-11 2 -24 1q2 -40 1 -67q-1 -47 -5 -133l-5 -108l9 -5
q32 -18 52 -32t43.5 -37.5t36 -55t14.5 -70.5q4 -82 -36 -122q-37 -38 -111 -40q4 -38 11 -74q1 -7 -2.5 -12t-10 -6t-11.5 2.5t-6 9.5q-7 39 -11 80q-33 0 -57 11q-20 10 -38 28q-24 25 -28 27q-11 10 -1.5 21.5t21.5 2.5l29 -30q14 -14 29 -21q18 -9 42 -9q-12 126 -6 314
q-27 15 -43.5 26t-36.5 28t-30.5 38.5t-13.5 48.5q-6 59 22 112t74 81q18 11 37 16q-2 53 -2 78q0 15 15 15t15 -15q0 -24 2 -72q16 1 31 -2q54 -11 90 -67q8 -13 -5 -21t-21 5z" />
    <glyph glyph-name="percent" unicode="%" horiz-adv-x="621" 
d="M147 696q-24 -14 -39 -52q-12 -32 -23 -114q-1 -5 -5 -29.5t-6 -41.5q-1 -17 0 -33q3 -54 45 -64q28 -7 50 31q23 40 30 107q6 68 -8 124q-15 54 -44 72zM183 705q24 -27 37 -73q16 -61 9 -135t-34 -119q-34 -58 -84 -46q-63 16 -67 93q-1 17 0 36q2 19 6.5 45t4.5 28
q12 85 25 121q31 79 99 79q15 0 15 -15q0 -12 -11 -14zM429 298h-7q-14 1 -18 0q-23 -5 -38 -46q-14 -42 -12.5 -101t19.5 -105q17 -45 42.5 -55t46.5 23q24 37 29 100q5 59 -11 110q-16 50 -51 74zM461 311q36 -32 50 -87t10 -112q-6 -71 -34 -114q-34 -53 -82 -35
q-38 14 -60 73q-19 51 -21 114q-2 65 14 112q20 57 60 66h6q6 12 19 7l16 -8l8 -1q6 -1 10 -5t4 -10zM151 8q21 43 44 131.5t28 105.5q34 109 54.5 168.5t56 140.5t79.5 158q7 13 20 6t6 -20q-62 -109 -99.5 -205t-88.5 -258q-3 -9 -27 -102t-45 -137q-7 -14 -20.5 -7.5
t-7.5 19.5z" />
    <glyph glyph-name="ampersand" unicode="&#x26;" horiz-adv-x="552" 
d="M153 358q-55 -53 -78 -134q-27 -97 18 -157q30 -40 84 -44q67 -5 98 23q27 25 53 71l-72 93q-8 11 -30 37t-38 48t-27 45zM364 121l82 -96q10 -11 -1 -21t-21 1l-75 87q-26 -43 -54 -68q-40 -37 -120 -31q-68 5 -106 56q-53 72 -23 183q27 96 94 155q-25 63 -50 145
q-22 72 3 131q29 69 107 74q32 2 53.5 -4.5t43.5 -27.5q30 -28 39 -95q12 -88 -51 -149q-20 -19 -59 -48q-38 -26 -49 -35l12 -26q10 -21 23 -40q15 -20 36 -45l32 -39l63 -82q11 22 22 48q25 61 58 173q1 6 6.5 9t11.5 1.5t9 -7t1 -11.5q-33 -114 -58 -176q-14 -34 -29 -62
zM165 407l43 31q40 29 56 44q52 51 42 124q-8 56 -29 77q-17 16 -33 21t-42 3q-59 -4 -82 -56q-20 -49 -2 -111q23 -75 47 -133z" />
    <glyph glyph-name="quotesingle" unicode="'" horiz-adv-x="221" 
d="M111 702q10 -73 10 -237q0 -15 -15 -15t-15 15q0 161 -10 233q-1 6 3 11t10 6t11 -3t6 -10z" />
    <glyph glyph-name="parenleft" unicode="(" horiz-adv-x="310" 
d="M206 721q-11 -10 -22 -32l-20 -40q-46 -76 -60 -109q-29 -69 -41.5 -169t-3.5 -200q10 -108 45 -193.5t95 -130.5q12 -9 3 -21t-21 -3q-66 50 -103.5 141.5t-48.5 203.5q-10 104 3 207t44 177q15 35 62 113q2 3 20 38q13 26 26 40q11 10 21.5 -0.5t0.5 -21.5z" />
    <glyph glyph-name="parenright" unicode=")" horiz-adv-x="279" 
d="M37 701q94 -97 128 -299q30 -179 0 -328q-20 -97 -96 -229q-7 -13 -20 -6t-6 20q74 129 92 221q30 142 0 317q-33 193 -120 284q-10 10 0.5 20.5t21.5 -0.5z" />
    <glyph glyph-name="asterisk" unicode="*" 
d="M172 497q-56 15 -142 58q-13 6 -6.5 19.5t20.5 6.5q83 -41 136 -55q0 23 0.5 80t0.5 88q0 15 15 15t15 -15q0 -31 -0.5 -87.5t-0.5 -77.5q19 5 57 19q54 19 85 24q6 1 11 -3t6 -10t-3 -11t-10 -6q-27 -4 -79 -22q-36 -13 -55 -18l26 -40l33 -46q18 -24 27 -38
q9 -13 -3.5 -21.5t-20.5 3.5q-4 5 -36 52l-49 70q-18 -19 -41 -55q-45 -67 -53 -78q-9 -12 -21 -3t-3 21q4 5 52 77q22 33 39 53z" />
    <glyph glyph-name="plus" unicode="+" horiz-adv-x="660" 
d="M114 300q66 21 201 4q1 162 1 242q0 15 15 15t15 -15q0 -80 -1 -245q13 -2 22 -3q20 -2 44.5 -2.5t41.5 0t47.5 2.5t43.5 3q6 0 11 -4t5 -10t-4 -11t-10 -5q-12 -1 -43 -3t-48.5 -2.5t-43.5 0t-48 2.5l-18 2q-1 -127 -1 -204q0 -15 -15 -15t-15 15q0 77 1 208
q-132 17 -193 -2q-5 -2 -10.5 1t-7.5 8.5t1 11t9 7.5z" />
    <glyph glyph-name="comma" unicode="," horiz-adv-x="219" 
d="M31 -119q5 21 28.5 90t29.5 108q1 6 6 10t11 3t10 -6t3 -11q-7 -41 -31.5 -114t-28.5 -88q-1 -6 -6.5 -9t-11.5 -1.5t-9 7t-1 11.5z" />
    <glyph glyph-name="hyphen" unicode="-" horiz-adv-x="272" 
d="M43 264q76 0 112 5q6 1 11 -3t6 -10t-3 -11t-10 -6q-39 -5 -116 -5q-15 0 -15 15t15 15z" />
    <glyph glyph-name="period" unicode="." horiz-adv-x="207" 
d="M107 15q0 -15 -15 -15t-15 15t15 15t15 -15z" />
    <glyph glyph-name="slash" unicode="/" horiz-adv-x="333" 
d="M50 -31q0 35 14 88q19 69 21 82q38 207 68 334q6 23 20.5 69t22 80.5t7.5 67.5q0 15 15 15t15 -15q0 -35 -8 -73t-23 -85t-19 -67q-31 -125 -68 -332l-22 -84q-13 -49 -13 -80q0 -15 -15 -15t-15 15z" />
    <glyph glyph-name="zero" unicode="0" 
d="M209 690q-3 -2 -11.5 -7t-12.5 -7t-11 -6.5t-11 -7.5t-9 -7.5t-9 -9.5q-57 -66 -68 -230q-8 -113 6 -257q7 -70 47 -121q45 -57 105 -35q86 32 101 213q8 95 -8 272q-6 71 -11 97q-11 62 -29 79q-26 25 -79 27zM209 720q65 -2 99 -35q26 -25 38 -96q5 -30 12 -100
q16 -177 8 -277q-17 -199 -121 -238q-80 -30 -139 45q-45 58 -53 137q-14 147 -6 261q12 174 76 248q16 19 49 38v2q0 15 15 15h17h5z" />
    <glyph glyph-name="one" unicode="1" horiz-adv-x="369" 
d="M85 582q26 7 63 47q11 12 33 31q23 19 37 32l1 1q4 3 5 4q15 10 26 -2q3 -3 5 -9l2 -8q1 -8 2 -22q1 -21 1 -58v-42v-34v-20q0 -21 -4 -181q-2 -109 2 -179q1 -14 7 -70q4 -44 4 -72q0 -15 -15 -15t-15 15q0 27 -4 69q-6 56 -7 71q-4 71 -2 182q4 160 4 180v20v34v42
q0 36 -1 57q-1 5 -1 8q-16 -10 -58 -55q-43 -45 -77 -54q-6 -2 -11.5 1t-7 9t1.5 11.5t9 6.5z" />
    <glyph glyph-name="two" unicode="2" horiz-adv-x="444" 
d="M42 561q-8 57 29.5 97.5t93.5 48.5q58 9 108 -23.5t67 -106.5q21 -92 -61 -229q-19 -32 -71 -107q-45 -65 -61 -93l-44 -73l-26 -43l-3 -5q7 -1 17 -2q27 -3 75 -5q72 -3 134 -3q15 0 15 -15t-15 -15q-62 0 -135 3q-49 2 -77 5q-18 2 -28 5q-6 1 -10 3q-8 3 -11 10
q-2 4 -1 9q0 1 0.5 2.5t1.5 2.5q1 2 3 5q3 6 8 15l26 44l44 71q17 30 62 96q49 69 70 105q76 127 57 208q-14 61 -54 87t-87 19q-46 -6 -75 -37.5t-22 -74.5q1 -6 -3 -11t-10 -6t-11 3t-6 10z" />
    <glyph glyph-name="three" unicode="3" horiz-adv-x="475" 
d="M56 606q6 61 71 91q59 27 117 10q27 -7 54 -35.5t40 -56.5q25 -57 13.5 -116.5t-50.5 -103.5q-17 -20 -40 -35q4 -1 6 -1q50 -12 80 -66q24 -44 27 -95q4 -28 0.5 -75t-21.5 -76q-27 -43 -73 -61.5t-96.5 -11.5t-89.5 37t-52 79q-2 6 1 11.5t9 7t11.5 -1.5t6.5 -9
q11 -39 43 -64t74.5 -30.5t80.5 10t59 49.5q14 23 17.5 62.5t-0.5 70.5q-2 45 -23 82q-24 43 -60 51q-8 2 -43 1q-17 -1 -25 -1q-6 1 -10 1q-8 2 -13 6q-3 4 -5 7q-3 7 1 14q3 6 10 8h7h3h2q14 -1 27 4q35 14 64 46q34 38 43.5 89.5t-10.5 96.5q-12 24 -34.5 48t-41.5 30
q-47 13 -96 -10q-50 -22 -54 -65q-1 -7 -5.5 -11t-11 -3t-10.5 5.5t-3 10.5z" />
    <glyph glyph-name="four" unicode="4" horiz-adv-x="488" 
d="M292 200q51 -2 81 -2q15 0 15 -15t-15 -15q-30 0 -80 2q1 -68 7 -156q0 -6 -4 -11t-10 -5t-11 4t-5 10q-6 89 -7 158q-11 1 -20 1q-78 2 -128 -1q-7 0 -40 -8q-15 -3 -23 -4q-5 -1 -9 -2q-2 0 -5 1q-5 0 -8 3q-13 10 -11 32q2 15 10 37q13 33 46 90q35 61 94 146
q52 78 79 135q13 28 25 67v3q0 4 1 6q1 6 4 10q6 10 18 8q8 -2 12 -10q1 -3 2 -7q2 -6 3 -16q2 -17 3 -45q3 -62 0 -92q-2 -18 -10 -65q-7 -40 -9 -61q-7 -91 -5 -198zM49 187q4 1 19 4q36 8 45 9q51 3 131 1q8 0 18 -1q-2 109 5 200q2 23 9 65q8 42 10 61q3 28 0 86
q-5 -13 -10 -24q-26 -54 -83 -139q-58 -86 -92 -145q-31 -54 -44 -86q-7 -18 -8 -29v-2z" />
    <glyph glyph-name="five" unicode="5" horiz-adv-x="463" 
d="M335 667q-10 -2 -47 -4q-29 -1 -73 -2q-30 0 -68 -1h-22q-4 -11 -7 -34q-3 -29 -4 -75q0 -72 5 -131v-14q10 10 19 17q44 35 90 27q86 -17 119 -137q24 -86 14 -182q-4 -40 -34.5 -76t-72.5 -57q-38 -22 -86.5 -21.5t-81.5 30.5q-10 9 -17 28q-1 1 -5 13q-3 7 -4 10
q-7 14 6.5 20.5t19.5 -6.5q3 -5 6 -14q4 -12 5 -12q5 -13 9 -17q25 -22 62 -22.5t73 18.5q37 18 62 48t28 62q10 89 -13 171q-28 101 -96 114q-32 6 -65 -20q-9 -7 -23 -21l-9 -9q-8 -6 -15 -6q-15 0 -20 14q-3 6 -3 17q1 2 2 14v9q-5 59 -5 134q1 46 5 78q5 41 17 55
q2 3 5 4q1 0 2 1h2h1h1h2h3h3h22q38 1 67 1q44 1 72 2q34 2 41 4q6 1 11.5 -2t7 -9t-1.5 -11.5t-9 -7.5z" />
    <glyph glyph-name="six" unicode="6" horiz-adv-x="465" 
d="M94 297q-21 -83 -17 -153q2 -43 27 -79t62 -53q33 -18 72 -8.5t67 48.5q22 32 26 104q0 9 2.5 37t2.5 36t-3 33q-12 57 -39.5 90.5t-61.5 40t-69 -15.5t-63 -74q-2 -4 -6 -6zM271 691q-6 -18 -13.5 -36.5t-19.5 -40.5l-16 -34l-22 -39l-19 -33q-35 -63 -59 -126
q54 51 116 40q44 -8 77.5 -49t47.5 -105q3 -29 3 -38.5t-2.5 -39.5t-2.5 -36q-4 -81 -32 -120q-23 -32 -54 -48t-61 -16q-31 1 -61 15q-44 20 -73 63q-30 43 -33 94q-9 171 108 380q3 6 19 34l22 38l16 32q11 22 18 39.5t13 35.5q2 5 7.5 8t11 1t8.5 -7.5t1 -11.5z" />
    <glyph glyph-name="seven" unicode="7" horiz-adv-x="446" 
d="M46 695h29q24 0 56.5 0.5t60.5 0.5q56 -1 88 -2q20 0 31 -1q7 -1 11 -2q7 -1 10 -3q11 -6 14 -20q2 -10 0 -24q-2 -20 -13 -53q-11 -36 -32 -86q-72 -172 -93 -251q-4 -14 -14.5 -56.5t-17 -66.5t-19 -58t-26.5 -58q-7 -13 -20 -6t-6 20q13 23 24.5 55t18 55t16.5 65
l14 58q23 86 95 255q23 53 32 83t11 48q1 9 1 14q-3 0 -8 1q-11 1 -30 1q-32 1 -87 2q-28 0 -60.5 -0.5t-56.5 -0.5h-29q-15 0 -15 15t15 15z" />
    <glyph glyph-name="eight" unicode="8" horiz-adv-x="472" 
d="M132 369q-33 24 -48.5 66t-14.5 89q1 46 17 88q17 42 46 68q22 20 71 20q2 0 13 0.5t16.5 0t15 -2t17.5 -4.5q41 -18 63.5 -62t25 -97t-16 -99.5t-57.5 -68.5q-4 -3 -9 -5q24 -10 42 -31q30 -38 46.5 -88.5t12.5 -100.5q-3 -53 -30.5 -95t-79.5 -61q-82 -30 -148 23
q-57 47 -75 132q-14 70 8.5 135t84.5 93zM171 350q-65 -15 -91 -73.5t-11 -129.5q16 -75 64 -115q52 -42 119 -18q42 16 64.5 50.5t26.5 79.5q2 44 -12 89t-42 78q-21 27 -67 32q-41 4 -51 7zM202 383q5 0 18 0.5t18 1t13 2.5t15 6q29 17 44.5 55.5t13.5 85t-21 83t-50 49.5
q-5 2 -11 3t-10 1h-14h-15q-37 0 -51 -12q-24 -21 -38 -57.5t-15 -77.5q-1 -42 12 -77t40 -54q10 -7 21 -11q7 1 13 2q5 1 10 -2q3 2 7 2z" />
    <glyph glyph-name="nine" unicode="9" horiz-adv-x="477" 
d="M325 345q-20 -16 -48 -31q-73 -39 -133 -6q-52 27 -79 98q-17 42 -20 89t9.5 91.5t40.5 73.5q54 53 107 61q49 7 90 -26q37 -29 59 -82t26 -113q13 -200 -200 -491q-9 -12 -21 -3t-3 21q127 174 172 318zM339 399q11 53 8 99q-4 55 -23.5 102t-49.5 71q-32 25 -68 20
q-43 -6 -89 -53q-35 -34 -41 -99t17 -122q23 -60 65 -83q47 -25 105 6q46 25 70 54q3 3 6 5z" />
    <glyph glyph-name="colon" unicode=":" horiz-adv-x="230" 
d="M129 449q0 -15 -15 -15t-15 15t15 15t15 -15zM130 21q0 -15 -15 -15t-15 15t15 15t15 -15z" />
    <glyph glyph-name="semicolon" unicode=";" horiz-adv-x="236" 
d="M136 93q0 -61 -6 -103.5t-28 -85.5q-6 -13 -19.5 -6.5t-6.5 20.5q19 38 24.5 77t5.5 98q0 15 15 15t15 -15zM124 436q0 -15 -15 -15t-15 15t15 15t15 -15z" />
    <glyph glyph-name="less" unicode="&#x3c;" horiz-adv-x="666" 
d="M559 503q-11 -6 -71 -41l-83 -48l-67 -36l-82 -42q-23 -10 -67 -27t-57 -23l-13 -5l26 -7l48 -15l30 -10q52 -21 160 -91q99 -64 154 -84q6 -2 8.5 -7.5t0.5 -11.5t-7.5 -8.5t-11.5 -0.5q-58 20 -160 86q-107 69 -156 89q-3 2 -27 9l-48 15l-45 14l-15 5q-3 1 -5 1
q-1 1 -2 1l-1 1q-4 2 -6 5q-3 6 -2 12t6 10q4 3 10 5q1 0 6 1h1q6 2 18.5 6.5t18.5 7.5q14 6 58 22q42 17 66 28l80 40l68 36l81 48l70 41q13 7 20.5 -5.5t-4.5 -20.5z" />
    <glyph glyph-name="equal" unicode="=" horiz-adv-x="665" 
d="M95 406q65 -13 140 -14t170.5 5t144.5 6q15 0 15 -15t-15 -15q-46 0 -142 -6t-174 -5t-145 14q-6 2 -9.5 7t-2 11t6.5 9.5t11 2.5zM89 226q89 0 308 10q29 1 76 -2q52 -4 72 -4q15 0 15 -15t-15 -15q-21 0 -74 4q-46 3 -72 2q-260 -10 -310 -10q-15 0 -15 15t15 15z" />
    <glyph glyph-name="greater" unicode="&#x3e;" horiz-adv-x="671" 
d="M107 536q52 -36 77 -47q10 -5 40 -17l78 -32l84 -35q77 -32 119 -51l41 -19l13 -8q7 -5 10 -10q6 -10 0 -21q-4 -7 -11 -13q-11 -9 -31 -21l-32 -17q-19 -9 -20 -9q-17 -10 -102 -64q-64 -40 -108 -61q-26 -12 -71 -29q-53 -20 -71 -28q-14 -6 -20 8t8 20q18 8 72 28
q45 17 70 29q38 18 104 59q86 54 104 64q1 1 20 10l32 17q16 9 25 16l-6 3l-39 19q-42 19 -119 51l-83 34l-79 32l-40 17q-30 14 -83 51q-12 8 -3.5 20.5t21.5 3.5z" />
    <glyph glyph-name="question" unicode="?" horiz-adv-x="403" 
d="M21 549q-23 53 6.5 98.5t82.5 63.5q26 9 52.5 9t52 -9t46.5 -31.5t32 -56.5q23 -67 0.5 -125.5t-75.5 -119.5q-3 -4 -10 -11l-9 -10q-3 -3 -6.5 -8.5t-5.5 -11.5q-13 -30 -14 -77.5t7 -81.5q1 -6 -2.5 -11.5t-9.5 -6.5t-11.5 2.5t-6.5 9.5q-8 35 -6.5 88t15.5 89
q3 7 8.5 15t9 12.5t10.5 12t9 9.5q49 56 68.5 107t0.5 108q-12 36 -36.5 55.5t-52 21t-56.5 -6.5q-44 -16 -66 -50.5t-5 -71.5q6 -14 -8 -20t-20 8zM180 27q0 -15 -15 -15t-15 15t15 15t15 -15z" />
    <glyph glyph-name="at" unicode="@" horiz-adv-x="669" 
d="M372 316q4 24 16 74q7 24 31 86q-30 49 -65 50q-36 0 -75 -48q-38 -47 -58.5 -115t-10.5 -116q9 -44 23 -62t28 -17q15 0 35 19t40.5 56t35.5 73zM446 450l-31 -100q-6 -21 -14 -42q-5 -27 -5 -49q-2 -35 8 -54q9 -20 31 -22h18h14h4q28 14 44 70q4 15 18 99
q20 113 -15 196q-39 97 -144 109q-91 10 -158 -23q-3 -2 -14 -7.5t-14.5 -7t-13 -6.5l-13.5 -7l-12 -8q-8 -5 -12.5 -8.5t-10.5 -9.5l-10 -10q-5 -5 -9 -11q-26 -35 -41 -113q-22 -112 -9 -175q3 -15 9 -31t11 -27l15 -31l14 -30q34 -75 82.5 -114t104.5 -44q55 -4 114 24.5
t114 88.5q10 11 21 1t1 -21q-59 -64 -124 -96t-128 -27q-65 5 -120 49.5t-93 126.5q-3 8 -13 28t-15.5 32t-12 30.5t-10.5 34.5q-14 70 9 187q6 28 10 44t13.5 39t23.5 42q6 9 13.5 16.5t17.5 15.5t15.5 12t19.5 11.5t17 9.5t20 10l16 8q76 38 176 27q122 -14 168 -127
q38 -92 17 -214q-15 -84 -19 -101q-21 -72 -63 -90q-3 -1 -7 -1q-3 -1 -6 -1h-14h-21q-39 4 -56 38q-9 18 -11 43l-3 -5q-49 -89 -101 -91q-59 -3 -82 103q-11 55 12 129q22 74 64 127q47 59 98 59q44 -1 78 -46l2 4q1 2 1 3v0q1 2 1 3l1 1q1 2 2.5 3.5t3.5 2.5q5 3 11 2
q7 -2 10 -9q1 -2 1 -5v-4v-1q0 -1 -1 -2l-10 -33l1 -3q7 -14 -6 -20q-2 -1 -3 -2z" />
    <glyph glyph-name="A" unicode="A" horiz-adv-x="522" 
d="M97 219q50 -3 72.5 -3t74 2.5t75.5 3.5l-25 70l-28 78q-11 28 -22.5 70t-18.5 78q0 2 -5 35.5t-9 56.5l-4 20q-4 -23 -17.5 -64t-16.5 -51zM4 11.5q7 13.5 12.5 29.5t11 39.5t9.5 34.5l23 82q-5 5 -4 12q2 9 10 12l79 302q2 8 17 55.5t18 73.5v7q-1 10 -1 12q-1 10 1 16
q6 13 20 13q12 0 20 -13q4 -7 8 -20q6 -18 13 -52q4 -22 8.5 -56t5.5 -35q12 -72 57.5 -197t54.5 -158q32 -107 53 -149q7 -14 -6.5 -20.5t-19.5 6.5q-23 45 -55 155l-10 31q-24 0 -78 -3t-81.5 -3t-80.5 3l-24 -82l-8 -33q-6 -25 -12 -43.5t-15 -33.5q-7 -13 -20 -6
t-6 20.5z" />
    <glyph glyph-name="B" unicode="B" horiz-adv-x="508" 
d="M273 370q40 -18 72.5 -58t49.5 -87q12 -34 13.5 -67t-10.5 -66t-38 -56q-18 -16 -41 -26t-40 -15t-49 -6.5t-43.5 -1t-48 3t-39.5 2.5q-6 0 -10 4.5t-4 11.5q-2 4 -2 9q15 122 1 332q-4 4 -4 9t2 9l-1 19q-4 52 -1 152q3 96 1 137q-6 5 -6 12q0 12 12 15q3 2 7 2
q5 0 9 -2q108 -2 170 -33q90 -45 101 -155q2 -26 2 -40q-1 -27 -13 -43q-30 -41 -90 -62zM214 356q-37 -6 -100 -10q13 -202 0 -324q5 0 16 -1q41 -2 76.5 -3.5t72 8.5t61.5 32q31 27 37 70.5t-10 86.5q-16 45 -47 81t-67 50q-19 8 -39 10zM114 384q8 0 47.5 2t50.5 0l18 4
q77 17 109 60q6 8 7 27q0 12 -2 34q-10 95 -85 133q-53 26 -148 29q2 -40 -1 -134q-3 -100 1 -150v-5h3z" />
    <glyph glyph-name="C" unicode="C" horiz-adv-x="521" 
d="M393 613q-55 93 -142 75q-38 -8 -73.5 -38t-59.5 -75q-50 -93 -49 -224q1 -130 58 -220q59 -92 128 -107q76 -16 139 70q9 12 21 3t3 -21q-75 -101 -169 -81q-83 17 -148 120q-40 64 -54.5 150t-2.5 171q13 86 48 153q26 50 66.5 84.5t86.5 43.5q50 11 95.5 -11t78.5 -77
q8 -13 -5 -21t-21 5z" />
    <glyph glyph-name="D" unicode="D" horiz-adv-x="539" 
d="M102 22q69 3 136 35.5t114.5 91t55.5 127.5l2 30q0 10 -2 29.5t-3.5 29.5l-4.5 31l-6 31q-25 169 -136 220q-30 14 -73 16t-80 -1q17 -174 2 -447q-1 -10 -3 -49l-2 -48q-1 -10 -2 -48.5t2 -47.5zM100 692q35 4 85 1.5t85 -18.5q126 -59 154 -244q1 -10 4 -30l6 -31
q2 -11 4 -32t2 -32l-2 -34q-10 -77 -62 -141.5t-125 -100t-148 -38.5q-3 -9 -12 -10q-7 -1 -11.5 3t-5.5 10q-2 22 -3 44t-0.5 47.5t1.5 41.5t2.5 46.5t2.5 42.5q15 277 -3 450q-4 4 -4 10q0 4 2 8q0 5 3.5 9.5t9.5 5.5q10 1 15 -8z" />
    <glyph glyph-name="E" unicode="E" horiz-adv-x="440" 
d="M89 699q71 -9 234 -9q15 0 15 -15t-15 -15q-153 0 -220 7q5 -26 7.5 -58.5t3 -52t0 -61t-0.5 -52.5v-75q19 -7 45 -9.5t45 -2.5t50.5 1t47.5 1q15 0 15 -15t-15 -15q-13 0 -43.5 -1t-50 -1t-46.5 2.5t-48 7.5q-1 -35 -1.5 -96.5t-1 -113t-0.5 -97.5q32 3 67.5 3.5
t81.5 -0.5t66 -1q15 0 15 -15t-15 -15q-20 0 -71.5 1t-87.5 0.5t-69 -4.5q-7 -1 -11.5 3t-5.5 10v5v3q0 71 1.5 212t1.5 212q0 11 0.5 56.5t0 64t-3.5 52t-9 59.5q-5 5 -4 12q1 6 5.5 9.5t10.5 3.5q3 0 6 -1z" />
    <glyph glyph-name="F" unicode="F" horiz-adv-x="429" 
d="M82 694q39 0 116 1.5t116 1.5q15 0 15 -15t-15 -15q-38 0 -111 -1.5t-107 -1.5q6 -125 7 -284q26 2 55.5 2t67 -0.5t55.5 -0.5q15 0 15 -15t-15 -15q-18 0 -55.5 0.5t-67 0.5t-55.5 -2q0 -62 -0.5 -177t-0.5 -162q0 -15 -15 -15t-15 15q0 49 0.5 160.5t0.5 173
t-1.5 153.5t-5.5 170q0 4 1 7v4q0 15 15 15z" />
    <glyph glyph-name="G" unicode="G" horiz-adv-x="537" 
d="M388 606q-63 86 -142 70q-35 -7 -67.5 -36t-56.5 -76q-25 -51 -39 -122.5t-11 -143.5q7 -167 92 -244q46 -41 101 -50.5t107 16.5q7 4 14.5 7t10 4.5t5 4.5t4.5 8q1 7 1 31q-1 22 -3 56q-2 20 -5 54.5t-4 42.5q0 3 -1 65v37q-1 3 -1 5q-1 1 -4 1q-13 0 -35 -1
q-47 -1 -56 -3q-7 -1 -12 2.5t-6 10t2.5 11.5t9.5 6q12 2 61 3q23 1 37 1q8 -1 13 -1q3 0 5 -1q2 0 4 -1q4 -1 6 -4q3 -3 4 -6v-3q1 -2 1 -5q0 -5 1 -14v-38q1 -61 1 -63q0 -8 3 -42l6 -55q2 -35 3 -57q1 -29 -2.5 -40t-10.5 -19t-12.5 -11.5t-14.5 -7t-11 -4.5
q-63 -31 -126.5 -20t-115.5 58q-94 85 -102 265q-3 76 12 151q14 73 42 130q25 51 63 84.5t81 42.5q46 10 90.5 -10.5t81.5 -70.5q9 -12 -3 -21t-21 3z" />
    <glyph glyph-name="H" unicode="H" horiz-adv-x="561" 
d="M458 700q0 -22 2.5 -125.5t-0.5 -125.5l-4 -87q2 -3 2 -6q0 -5 -3 -9q-8 -200 0 -330q0 -6 -4 -11t-10 -5t-11 4t-5 10q-8 130 0 324q-82 -4 -328 -4q1 -172 11 -327q0 -6 -4 -11t-10 -5t-11 4t-5 10q-20 302 -3 678q0 6 4.5 10t11 4t10.5 -4.5t4 -11.5q-8 -167 -8 -317
q248 0 329 4l4 82q3 22 0.5 124.5t-2.5 124.5q0 15 15 15q6 0 10.5 -4.5t4.5 -10.5z" />
    <glyph glyph-name="I" unicode="I" horiz-adv-x="216" 
d="M104 689q15 -48 11 -153q-1 -32 -4 -82q-3 -52 -4 -71q-2 -56 -2 -118.5t1 -139t1 -117.5q0 -15 -15 -15t-15 15q0 41 -1 118t-1 139.5t2 117.5q1 20 4 73q3 48 4 81q4 100 -9 144q-2 6 1 11.5t9 7t11.5 -1.5t6.5 -9z" />
    <glyph glyph-name="J" unicode="J" horiz-adv-x="361" 
d="M16 88q11 -55 37 -82.5t56 -28t59 25.5t46 77q9 28 13 66.5t4.5 61.5t-2 76.5t-2.5 65.5q-2 62 1 177t3 156q0 15 15 15t15 -15q0 -41 -3 -155.5t-1 -177.5q0 -9 2.5 -63.5t2 -78.5t-5 -65.5t-14.5 -72.5q-19 -58 -55.5 -90.5t-78.5 -32.5q-43 1 -76 36.5t-46 98.5
q-1 6 2.5 11t9.5 6.5t11 -2t7 -9.5z" />
    <glyph glyph-name="K" unicode="K" horiz-adv-x="536" 
d="M407 693q-7 -25 -39 -69q-25 -34 -68 -82q-72 -81 -133 -137q-3 -3 -11 -9l-15 -11q-8 -6 -12 -11q-3 -2 -5 -4q1 -4 4 -10q6 -11 19 -27l15 -19l16 -19l10 -10l58 -72l60 -77q24 -29 59 -67t66 -67q11 -10 1 -21t-21 -1q-42 38 -81 82q-38 43 -95 115t-71 88q-1 3 -8 11
l-17 19q-9 10 -16 19l-7 10q-6 -228 -6 -306q0 -15 -15 -15t-15 15q0 86 4.5 257.5t4.5 257.5q0 13 1.5 41t1.5 42q1 48 -10 74q-2 6 0.5 12t8 8t11.5 -0.5t8 -7.5q13 -32 12 -86q0 -14 -1.5 -42t-1.5 -41q0 -57 -1 -129l5 5l15 11q7 5 9 7q61 57 131 135q40 45 66 80
q29 39 35 59q1 6 6.5 9t11.5 1.5t9 -7t1 -11.5z" />
    <glyph glyph-name="L" unicode="L" horiz-adv-x="407" 
d="M103 703q11 -28 16 -101q4 -58 3 -146q0 -35 -6 -259q0 -6 -3 -41.5t-3 -58.5q-2 -34 0 -55q1 -12 2 -17q1 -2 1 -3q7 -3 27 -4q20 -2 54 -1q21 0 55.5 1.5t42.5 1.5q15 0 15 -15t-15 -15q-8 0 -42.5 -1.5t-55.5 -1.5q-34 -1 -56 1q-30 2 -42 9q-9 6 -12 19q-3 9 -4 23
q-2 22 0 59q0 24 3 59t3 40q6 225 6 259q1 83 -3 145q-4 68 -14 90q-2 6 0.5 12t8 8t11.5 -0.5t8 -7.5z" />
    <glyph glyph-name="M" unicode="M" horiz-adv-x="697" 
d="M78 -1q4 38 5 79t-0.5 98.5t-1.5 81.5v183q0 88 7 167q1 11 1 60v2l-0.5 2t-1.5 5q-1 6 0 11q2 7 9 11q7 3 14 0t13 -12q5 -6 9 -15q8 -14 16 -38q6 -15 14 -38.5t9 -27.5q13 -36 27 -93l22 -92q7 -23 17 -50t18 -46.5t22 -50.5l21 -47q21 -49 39 -118l21 85q6 24 14 50
t20 61t17 51q5 17 28.5 106.5t43.5 135.5l36 82l16 35l5 11q2 2 2 3q1 1 1 2q1 1 1 2q2 1 3 2q6 4 12 3q8 -2 12 -10q2 -4 3 -9q2 -6 2 -18q1 -18 0 -50q-1 -22 -3 -54.5t-2 -34.5q-4 -82 10 -287q2 -25 3 -73t4 -83.5t11 -69.5q1 -6 -2.5 -11t-9.5 -6.5t-11 2t-7 9.5
q-8 34 -11 72t-4.5 87t-2.5 71q-14 206 -10 291q0 1 2 33.5t3 54.5v14l-35 -80q-20 -47 -42 -130q-22 -86 -30 -110l-17 -50q-11 -34 -18.5 -59.5t-13.5 -50.5l-23 -91q-6 -22 -9 -34q-2 -6 -3 -10q-1 -2 -2 -3.5t-2 -3.5l-3 -3q-5 -4 -11 -3q-15 2 -17 20v6l-1 2
q-22 91 -47 149q-6 15 -20 47l-22 51q-9 20 -19.5 48t-16.5 52q-3 8 -23 93q-13 57 -26 90l-9 26q-8 24 -14 40l-1 3q0 -12 -1 -21q-7 -78 -7 -165v-183q0 -23 1.5 -80.5t0.5 -100t-5 -82.5q-1 -6 -5.5 -10t-11 -3t-10.5 5.5t-3 11.5z" />
    <glyph glyph-name="N" unicode="N" horiz-adv-x="536" 
d="M74 -1q0 53 -3 131.5t-5.5 137.5t-1.5 133.5t8 135.5q3 29 9 97q2 27 3 37q0 8 1 12q0 3 0.5 5t1.5 3q3 6 9 8q12 4 24 -4q7 -6 14 -16q10 -15 21 -43q6 -13 11 -30l10 -28q4 -13 5 -15q102 -272 186 -421q13 -23 29 -65l9 -25q0 10 -1 21q0 26 -4 89q-2 31 -1 89
q1 59 0 86q-6 74 -5.5 171.5t12.5 172.5q1 7 6 10.5t11.5 2.5t10 -6t2.5 -11q-12 -73 -12.5 -168t5.5 -170q1 -29 0 -89q-1 -55 1 -86q4 -64 4 -90q1 -34 1 -54q-1 -13 -2 -20q-1 -5 -2 -9q-2 -6 -7 -10t-11.5 -3.5t-10.5 5.5q-4 3 -6 9q0 2 -2 6q0 2 -1 3q-8 18 -25 65
q-15 40 -27 62q-84 148 -188 425q-1 2 -5 14l-10 28q-5 15 -11 30q-8 19 -15 31q0 -8 -1 -24q-6 -69 -9 -99q-7 -60 -8 -133t1.5 -131t5.5 -137t3 -133q0 -15 -15 -15t-15 15z" />
    <glyph glyph-name="O" unicode="O" horiz-adv-x="580" 
d="M258 714q4 3 9 3q2 0 16 0.5t21 0t18.5 -2.5t20.5 -5q61 -26 93.5 -98t40.5 -169q8 -83 -1 -168t-27 -140q-23 -70 -62 -113q-53 -59 -122 -51q-111 14 -170 141q-51 109 -45 259q6 148 62 245q58 98 146 98zM276 682q-83 13 -138 -81q-53 -91 -58 -231q-5 -143 42 -246
q52 -112 147 -123q53 -7 95 41q35 38 57 103q17 51 25 133.5t1 162.5q-8 91 -36.5 155.5t-79.5 85.5q-13 6 -41 5q-6 -6 -14 -5z" />
    <glyph glyph-name="P" unicode="P" horiz-adv-x="484" 
d="M119 336v-96q0 -13 2 -69t0 -94t-11 -71q-1 -6 -6.5 -9t-11.5 -1.5t-9 7t-1 11.5q8 30 9.5 65.5t-0.5 89.5t-2 71v445q0 15 15 15t15 -15v-3q57 12 112 2.5t93 -39.5q44 -34 56 -86t-12 -124q-22 -60 -56 -82q-18 -13 -45 -19t-43.5 -7t-51.5 0t-40 1q-9 0 -13 8z
M119 652v-302q4 8 13 8t42 -1t47.5 0t37 5.5t37.5 14.5q25 18 44 68q42 117 -34 176q-33 26 -82 34q-50 8 -105 -3z" />
    <glyph glyph-name="Q" unicode="Q" horiz-adv-x="585" 
d="M361 26q-12 -12 -17.5 -17t-18.5 -11.5t-27 -8.5q-119 -13 -196 103q-66 100 -73 250q-7 151 50 254q50 90 136 108q3 7 11 8q50 7 92 -8.5t71.5 -49t49 -76t31.5 -93.5q22 -99 14 -204q-9 -105 -43 -166q-16 -29 -58 -68l43 -26q13 -8 5 -21t-21 -5zM267 678
q-105 6 -162 -97q-53 -95 -46 -238q7 -141 68 -235q67 -100 167 -89q19 2 41 24q-17 11 -32 23q-12 9 -3 21t21 3q21 -16 36 -26q44 41 58 65q31 56 38.5 154.5t-13.5 194.5q-19 86 -59.5 141t-101.5 64q-5 -5 -12 -5z" />
    <glyph glyph-name="R" unicode="R" horiz-adv-x="498" 
d="M111 368q7 -1 22 -3.5t22 -3.5q32 -4 54 -6q62 -4 92 16q27 17 49 77q31 85 -12.5 151t-135.5 71q-30 2 -90 -11q-3 -32 -3.5 -68.5t1 -84t1.5 -70.5v-68zM225 324q-9 1 -18 1q-24 2 -57 7l-39 6q-1 -13 -2 -137t-1 -188q0 -15 -15 -15t-15 15q0 70 1.5 211t1.5 212
q0 20 -1.5 70t-1 89t4.5 73q-1 5 2 10q0 5 1 10q1 6 6 9.5t12 2.5q8 -2 11 -10q55 12 89 10q53 -3 94.5 -26t64 -59t28.5 -82t-13 -95q-26 -70 -61 -93q-25 -15 -61 -19q14 -49 37.5 -100.5t55 -112.5t48.5 -99q6 -14 -8 -20t-20 8q-15 35 -48 98.5t-57.5 118t-38.5 105.5z
" />
    <glyph glyph-name="S" unicode="S" 
d="M311 627q-15 43 -53 53q-37 9 -81 -13q-46 -23 -74.5 -69t-22.5 -100q5 -45 50 -86q19 -17 101 -75q33 -22 54.5 -40.5t44.5 -46t32.5 -61t6.5 -72.5q-3 -38 -28.5 -69.5t-62.5 -51t-76 -22.5t-75 15q-37 20 -82 73q-9 12 2.5 21.5t21.5 -1.5q41 -50 72 -67
q26 -13 58.5 -11t64.5 19t52.5 42.5t22.5 53.5q3 33 -5 61t-28 52t-40 41.5t-52 39.5l-26 17l-28 20q-10 7 -24.5 18.5t-25.5 21.5q-53 49 -60 104q-7 65 26.5 119t86.5 81q55 27 102 15q55 -14 74 -72q2 -6 -0.5 -11.5t-8.5 -7.5t-11.5 0.5t-7.5 8.5z" />
    <glyph glyph-name="T" unicode="T" horiz-adv-x="405" 
d="M2 700q32 -7 71 -8t69.5 1t74 4.5t73.5 2.5q15 0 15 -15t-15 -15q-18 0 -128 -6q2 -24 2.5 -52.5t-0.5 -48.5l-4 -53q-3 -33 -4 -48q-19 -308 -8 -465q0 -6 -4 -11t-10 -5t-11 4t-5 10q-11 159 8 469q1 16 4 49l4 53q1 19 0.5 46.5t-2.5 49.5q-81 -3 -136 8q-6 2 -9.5 7
t-2 11t6.5 9.5t11 2.5z" />
    <glyph glyph-name="U" unicode="U" horiz-adv-x="545" 
d="M104 694q0 -143 -2 -168q0 -1 -2.5 -31.5t-3 -40t-2.5 -40t-2.5 -46.5t-1 -45t0.5 -49.5t3.5 -45.5t5.5 -47q16 -99 57 -148q47 -55 131 -43q42 6 75 60q26 42 40 101q6 24 9 54t3 49.5t-0.5 58t-0.5 53.5v325q0 15 15 15t15 -15v-325q0 -13 0.5 -52.5t0.5 -60t-3 -52.5
t-9 -58q-16 -63 -44 -109q-41 -66 -97 -74q-100 -14 -158 54q-47 55 -64 162q-3 23 -5.5 49t-3.5 47t-0.5 50.5t1 46.5t2.5 47.5t2.5 40.5t3 39.5t2.5 31.5q2 25 2.5 51t0 64.5t-0.5 50.5q0 15 15 15t15 -15z" />
    <glyph glyph-name="V" unicode="V" horiz-adv-x="491" 
d="M20 706q21 -42 35.5 -92t27.5 -112.5t21 -92.5q9 -31 29.5 -93t28.5 -94q20 -70 37 -154l1 -5l4 19q15 63 20 89q15 83 39 179.5t45 164.5l54 175q2 5 7.5 8t11 1t8.5 -7.5t1 -11.5l-54 -174q-20 -68 -44 -163q-23 -89 -38 -178q-4 -23 -20 -90l-13 -52q-4 -11 -6 -17
q-1 -4 -2 -6l-2 -4q-4 -5 -9 -6q-8 -3 -14 3q-2 1 -3 4q-1 1 -1.5 3t-1.5 5q-2 5 -4 13q-3 16 -9 44q-16 83 -35 152q-9 32 -29.5 94t-28.5 93q-10 34 -23 95t-26 108.5t-33 87.5q-7 14 6.5 20.5t19.5 -6.5z" />
    <glyph glyph-name="W" unicode="W" horiz-adv-x="750" 
d="M26 688q14 -35 26.5 -70.5t23.5 -77.5l19 -69q7 -26 17 -79l14 -70q4 -17 15.5 -79t13.5 -72q12 -64 24 -112l5 -15q1 7 2 16q4 24 9 63q34 263 75 422q20 76 32 113q6 20 10 29q2 6 4 9t4 5q8 6 16 3q7 -2 11 -9q1 -4 3 -9q3 -7 5 -21q4 -20 7 -57q2 -19 5 -59
q3 -30 4 -36q12 -71 49 -183q49 -147 58 -186q12 -44 21 -74v7q4 34 15 98q13 66 16 96q4 34 16 90q14 65 18 88q6 34 32 124q21 76 24 119q0 6 5 10t11 4t10 -5t4 -11q-3 -47 -26 -125q-25 -89 -30 -120q-4 -26 -18 -90q-12 -54 -16 -88q-4 -31 -16 -98q-12 -62 -15 -96
q0 -2 -1 -15.5t-1 -21.5q-1 -13 -3 -21q-2 -6 -4 -10q-6 -10 -16 -10q-8 0 -13 7q-2 2 -3 5q-2 4 -5 11l-11 34l-23 85q-11 44 -57 183q-40 120 -51 189q-1 6 -3 37q-4 41 -6 59q-2 22 -4 37q-11 -37 -28 -105q-42 -157 -75 -418q-5 -39 -9 -64t-7 -39q-3 -9 -5 -14
q-1 -4 -3 -7q-4 -7 -11 -8q-8 -1 -14 4q-3 2 -6 6q-3 5 -7 14q-6 14 -13 41q-13 48 -25 113q-2 10 -13 73l-15 80q-3 16 -13.5 68t-17.5 78l-18 67q-12 42 -24 76.5t-26 68.5q-2 6 0.5 12t8 8t11.5 -0.5t8 -7.5z" />
    <glyph glyph-name="X" unicode="X" horiz-adv-x="507" 
d="M19 3q3 15 7 28t12 30.5t11 23.5l15 28l12 24l104 198l-53 105q-18 36 -51 128q-30 83 -52 120q-7 13 5.5 20.5t20.5 -4.5q25 -43 54 -126q32 -90 49 -124l44 -86l68 130l21 38l22 42q7 13 18 36.5t18.5 43t11.5 39.5q2 6 7.5 9t11.5 1.5t9 -7t2 -11.5q-6 -20 -13.5 -41
t-19 -45.5t-19.5 -38.5l-22 -43q-16 -29 -21 -37l-78 -149q61 -116 112 -194q7 -11 25.5 -37t32.5 -47.5t23 -42.5q6 -14 -8 -20t-20 8q-8 20 -20.5 39.5t-31 44.5t-27.5 39q-47 73 -103 178l-94 -180q-3 -5 -11 -20.5t-11 -22t-9.5 -19.5t-9.5 -21.5t-6.5 -20t-5.5 -22.5
q-2 -6 -7 -9.5t-11 -2t-9.5 6.5t-2.5 11z" />
    <glyph glyph-name="Y" unicode="Y" horiz-adv-x="468" 
d="M26 696l78 -195q32 -74 53 -117q13 -24 21 -36l3 -4q3 1 5 1l2 2q12 14 21 49q14 53 17 60q50 125 115 221q8 13 20.5 4.5t3.5 -20.5q-62 -94 -111 -217q-2 -5 -16 -56q-11 -40 -26 -59q-7 -8 -10 -11v-316q0 -15 -15 -15t-15 15v309q-4 2 -8 7q-5 4 -11 13q-8 13 -22 40
q-23 46 -54 118l-79 195q-2 6 0.5 12t8 8t11.5 -0.5t8 -7.5z" />
    <glyph glyph-name="Z" unicode="Z" horiz-adv-x="444" 
d="M37 703q1 0 154 -3q61 0 94 -3q20 -2 33 -4q7 -2 12 -4q8 -3 12 -9q5 -9 1 -24q-2 -9 -8 -23q-9 -23 -28 -60q-12 -24 -31 -58.5t-21 -38.5q-105 -211 -168 -367q-1 -1 -11 -23q-8 -18 -13 -32q-7 -18 -8 -28v-4q31 -15 123 -11q27 1 75 5q50 3 68 3q15 0 15 -15t-15 -15
q-17 0 -67 -3.5t-74 -4.5q-105 -4 -142 16q-16 8 -13 33q2 14 10 35q5 14 14 33q10 22 10 23q64 157 170 369q1 3 20 38t31 59q19 36 27 57q5 12 7 19h-2q-11 2 -30 4q-32 3 -91 3q-155 3 -158 3q-6 1 -10 6t-3 11t6 10t11 3z" />
    <glyph glyph-name="bracketleft" unicode="[" horiz-adv-x="290" 
d="M159 692q-32 0 -66 -3q-23 -1 -36 -4q-6 -1 -9 -3q-3 -12 1 -41q6 -48 6 -55q0 -82 11 -511q0 -12 -1 -52.5t-1 -57.5q-1 -37 1 -60q1 -26 5 -34q1 -3 11 -6q11 -3 30 -3q13 0 35 1q24 2 29 2q15 0 15 -15t-15 -15q-4 0 -27 -2q-23 -1 -37 -1q-24 0 -39 4q-22 7 -30 23
q-6 12 -7 44q-2 24 -1 62q0 18 1 58t1 52q-11 429 -11 511q0 4 -6 51q-5 39 2 59q3 9 14 14q6 2 16 4q14 3 40 5q36 3 68 3q15 0 15 -15t-15 -15z" />
    <glyph glyph-name="backslash" unicode="\" horiz-adv-x="354" 
d="M67 713q12 -34 18 -92q6 -65 12 -88q2 -8 6 -26q61 -262 106 -386q7 -20 20 -79q11 -47 23 -72q7 -14 -6.5 -20.5t-19.5 6.5q-15 29 -26 80q-12 56 -19 75q-46 126 -107 389q-5 20 -7 27q-4 21 -12 91q-6 55 -16 85q-2 6 0.5 11.5t8.5 7.5t11.5 -0.5t7.5 -8.5z" />
    <glyph glyph-name="bracketright" unicode="]" horiz-adv-x="283" 
d="M151 -144v-1v1zM50 717q15 1 63 -4q23 -2 37 -5q9 -1 14 -3q3 -1 6 -3q6 -3 8 -9q6 -17 5 -53q0 -26 -4 -71q-2 -28 -7 -67q-5 -43 -6 -56q-10 -128 -1 -399q3 -103 10 -154v-2l1 -4q1 -7 2 -12q2 -9 2 -14q1 -4 1 -7q-1 -7 -4 -11t-9 -6q-2 -1 -6 -2q-5 -1 -14 -2
q-14 -1 -37 -3q-15 0 -37 -1t-25 -1q-6 0 -11 4t-5 10t4 11t10 5q3 0 25 1t37 1q23 2 36 3q3 0 5 1q-1 2 -1 6q-1 5 -3 11v4l-1 1v1v1q-7 55 -10 159q-9 272 1 401q1 13 6 56.5t7 67.5q4 42 4 68q1 25 -2 38q-3 0 -6 1q-13 2 -35 5q-45 4 -58 3q-6 -1 -10.5 3t-5.5 10.5
t3 11t11 5.5z" />
    <glyph glyph-name="asciicircum" unicode="^" horiz-adv-x="652" 
d="M85 239q10 45 31.5 95.5t39.5 83.5l52 89l47 79l6 12q4 9 11 22.5t11 22.5q11 22 18 33q4 7 6 11q2 3 4 4.5t4 3.5q6 3 12 1q7 -2 14 -10q3 -4 8 -12q6 -12 15 -33l12 -33q8 -21 9 -23q54 -135 88 -204q10 -21 37 -58q30 -41 40 -61q7 -13 -6 -20t-20 6q-10 16 -39 57
q-26 38 -38 62q-37 73 -90 206q-1 2 -9 23l-12 34q-7 16 -12 26l-14 -26q-4 -9 -11 -23.5t-11.5 -23t-6.5 -11.5l-47 -81l-51 -87q-18 -32 -38.5 -80.5t-29.5 -90.5q-2 -6 -7 -9.5t-11 -2t-9.5 6.5t-2.5 11z" />
    <glyph glyph-name="underscore" unicode="_" horiz-adv-x="575" 
d="M4 -85q4 -3 22 -5q18 -3 49 -5q52 -4 139 -5h100q40 0 88 0.5t58 0.5q15 0 15 -15t-15 -15q-10 0 -58 -0.5t-88 -0.5h-100q-88 1 -141 5q-32 2 -52 5q-24 4 -33 9q-13 8 -5 21t21 5z" />
    <glyph glyph-name="grave" unicode="`" horiz-adv-x="229" 
d="M42 698q9 -23 22.5 -45t32.5 -50l30 -45q8 -13 -5 -21t-21 5q-8 14 -28 43t-34.5 53.5t-24.5 49.5q-2 5 0.5 11t8 8t11.5 -0.5t8 -8.5z" />
    <glyph glyph-name="a" unicode="a" horiz-adv-x="416" 
d="M270 251q-46 15 -89 8q-44 -7 -81 -68q-35 -60 -28 -106q5 -35 50 -50q45 -14 76 6q36 25 59 72q0 36 9 107q3 21 4 31zM61 425q15 35 44 52t63 16q32 -2 61 -19t48 -45q14 -22 21 -47.5t6.5 -58t-2 -50.5t-6.5 -57q-7 -48 -8.5 -75.5t4 -64t22.5 -63.5q8 -13 -5 -21
t-21 5q-18 30 -25 66q-20 -27 -49 -46q-42 -29 -101 -10q-27 9 -47 28t-24 46q-8 57 32 125q44 74 103 83q47 7 96 -7q8 85 -22 131q-14 22 -37 35t-48 15q-55 2 -77 -50q-6 -14 -20 -8t-8 20z" />
    <glyph glyph-name="b" unicode="b" horiz-adv-x="475" 
d="M102 299v-139v-1q4 -8 57 -102q17 -30 42 -41.5t51 -5.5t47.5 27t31.5 53q11 38 14 102t-7 133q-12 70 -40 101q-30 35 -79 20q-22 -7 -39 -19.5t-30 -33t-21 -38t-19 -47.5q-2 -6 -8 -9zM104 738q4 -20 6 -41.5t2 -46.5v-41q0 -15 -2 -46t-2 -40q-3 -70 -5 -151
q38 81 108 102q67 21 109 -28q34 -38 47 -116q11 -71 7.5 -139t-15.5 -109q-11 -40 -38.5 -67t-61.5 -35q-36 -8 -70 8q-33 16 -56 55l-31 54v-81q0 -15 -15 -15t-15 15q0 370 6 509q0 10 2 40.5t2 44.5v40q0 24 -2 43.5t-6 38.5q-1 6 2.5 11t9.5 6.5t11 -2t7 -9.5z" />
    <glyph glyph-name="c" unicode="c" horiz-adv-x="400" 
d="M273 418q-32 42 -84 42q-44 0 -74 -44q-27 -41 -40 -112q-10 -68 -6.5 -131t18.5 -96q13 -30 35 -48.5t46 -23.5q55 -10 95 42q9 12 21 3t3 -21q-25 -33 -58 -46.5t-66 -7.5q-33 7 -60.5 30.5t-43.5 59.5q-16 37 -21 106q-4 68 8 138q13 79 45 124q38 57 98 57
q67 0 108 -54q9 -12 -3 -21t-21 3z" />
    <glyph glyph-name="d" unicode="d" horiz-adv-x="449" 
d="M307 143q1 18 2.5 51.5t1.5 48.5q1 29 0 65q-6 58 -34 98q-28 39 -66 51q-43 14 -80 -13q-43 -31 -61 -108q-11 -45 -13 -94.5t8 -100.5t32 -85q27 -39 75 -44.5t82 28.5q27 26 53 102v1zM341 727q8 -63 0 -209q-2 -45 -1 -137q1 -63 1 -71q2 -22 1 -45q0 -2 -1 -4v-18
q0 -17 -2 -57.5t-2 -62.5t2.5 -54t9.5 -57q1 -6 -2 -11.5t-9 -7t-11.5 1.5t-7.5 9q-7 28 -10 63q-15 -30 -33 -49q-45 -44 -107 -37t-96 59q-26 38 -37 94.5t-9 108.5t13 99q21 89 74 127q49 35 107 17q54 -18 88 -75q0 64 2 109q8 143 0 203q-1 6 3 11t10 6t11 -3t6 -10z
" />
    <glyph glyph-name="e" unicode="e" horiz-adv-x="430" 
d="M301 273q1 18 -9 58.5t-27 65.5q-46 71 -103 48q-35 -14 -59 -78q-14 -39 -20 -87q18 0 137 -7q48 -3 64 -2q11 1 17 2zM52 274q6 56 23 103q28 77 75 96q42 17 78.5 -1.5t61.5 -57.5q23 -35 33.5 -77t5.5 -74q-3 -13 -19 -18q-9 -3 -24 -4q-19 -1 -68 2q-120 7 -138 7
q-1 -13 -1 -26q1 -81 28 -133q29 -56 83 -58q29 -1 56 13.5t42 39.5q8 13 21 5t5 -21q-20 -32 -54 -50q-34 -19 -72 -17q-70 3 -107 74q-31 58 -32 147q0 17 2 34q-2 3 -2 6q0 6 3 10z" />
    <glyph glyph-name="f" unicode="f" horiz-adv-x="318" 
d="M77 2q0 47 -2 93t-7.5 121.5t-6.5 92.5q-3 56 -1 137q-20 -1 -38 -4q-6 -1 -11 3t-6 10t3 11t10 6q19 3 43 4q1 5 2.5 46.5t2.5 62.5q2 71 30 118q40 67 111 44q6 -2 9 -7.5t1 -11t-7.5 -8.5t-10.5 -1q-49 15 -77 -31q-24 -41 -26 -103q-1 -16 -1.5 -34.5t-1.5 -40.5
t-2 -34q13 -1 42 -2t43 -1q15 0 15 -15t-15 -15q-16 0 -46 1t-40 2q-2 -80 1 -135q2 -25 5.5 -75t5.5 -81t3.5 -74t1.5 -79q0 -15 -15 -15t-15 15z" />
    <glyph glyph-name="g" unicode="g" horiz-adv-x="443" 
d="M302 109q0 156 3 236q-10 38 -32 67.5t-49 42.5q-36 18 -68 2q-39 -18 -64 -81q-16 -38 -24 -103t-1 -125q7 -69 34 -110t75 -43q43 -2 83 45q13 15 43 69zM333 281q-1 -57 -1 -154q11 -8 4 -20l-4 -6v-51q0 -11 2.5 -66.5t-0.5 -92.5q-2 -36 -14 -69q-16 -44 -56 -64
q-41 -21 -86 -16q-46 6 -78.5 36t-32.5 80q0 15 15 15t15 -15q0 -36 24 -59t60.5 -27t67.5 12t43 48q10 29 12.5 62t0 86t-2.5 69q-10 -17 -21 -29q-48 -58 -107 -55q-33 2 -58.5 17.5t-41 42t-24.5 56t-13 64.5q-7 64 1.5 132t25.5 111q30 73 79 96q45 23 95 -2
q42 -21 70 -68q2 32 5 62q1 7 5.5 11t11 3t10.5 -5.5t3 -10.5q-6 -59 -8 -126q6 -27 6 -54q0 -9 -8 -13z" />
    <glyph glyph-name="h" unicode="h" horiz-adv-x="459" 
d="M100 728q-4 -32 -3 -82v-85q-2 -79 -1 -179q24 54 63 88q40 34 79 33q47 -2 81 -54q15 -22 26 -90q9 -60 13 -138q3 -77 1 -138q-3 -67 -13 -89q-7 -14 -20.5 -7.5t-7.5 19.5q8 17 11 78q2 60 -1 135q-4 74 -13 135q-9 63 -20 79q-26 38 -58 40q-28 1 -58 -26
q-30 -26 -50.5 -66.5t-21.5 -74.5q0 -9 -9 -13q6 -224 6 -285q0 -15 -15 -15t-15 15q0 66 -5 257.5t-2 295.5v84q-1 53 3 87q1 6 6 10t11 3t10 -6t3 -11z" />
    <glyph glyph-name="i" unicode="i" horiz-adv-x="211" 
d="M107 468q-3 -32 1 -99q4 -72 3 -101q-1 -43 -6 -124q-5 -86 -5 -133q0 -15 -15 -15t-15 15q0 47 5 134q5 80 6 123q1 28 -3 100q-4 68 -1 102q1 6 5.5 10t10.5 3.5t10 -5t4 -10.5zM100 644q0 -15 -15 -15t-15 15t15 15t15 -15z" />
    <glyph glyph-name="j" unicode="j" horiz-adv-x="212" 
d="M100 471q-2 -145 -1.5 -196.5t6 -197.5t6.5 -197q0 -3 0.5 -12t0.5 -14q1 -20 -3 -31q-12 -40 -51 -61q-45 -24 -81 1q-12 8 -3.5 20.5t21.5 3.5q20 -14 48 1q29 16 38 43q2 7 1 22q0 5 -0.5 14t-0.5 13q-1 50 -6.5 197t-6 198t1.5 198q0 6 4.5 10t11 4t10.5 -4.5
t4 -11.5zM99 640q0 -15 -15 -15t-15 15t15 15t15 -15z" />
    <glyph glyph-name="k" unicode="k" horiz-adv-x="446" 
d="M318 462q-11 -14 -33 -34.5t-31 -30.5l-30 -37l-37 -45q-17 -20 -35 -36q-2 -2 -24 -17q-7 -5 -10 -8l-1 -1q1 -2 3 -4q6 -11 20 -27q26 -31 71 -78q87 -89 130 -125q11 -9 1.5 -20.5t-21.5 -1.5q-43 36 -131 126q-47 48 -73 79l-11 14q3 -124 -2 -201q0 -6 -5 -10
t-11 -4t-10 5t-4 11q3 55 3 116.5t-1.5 137.5t-1.5 117q0 60 3.5 179t3.5 179q0 15 15 15t15 -15q0 -60 -3.5 -179t-3.5 -179q0 -40 1 -106l6 5q20 14 21 14q17 16 33 35l35 42l32 39q9 11 32 33q21 19 30.5 30.5t21 2t2.5 -20.5z" />
    <glyph glyph-name="l" unicode="l" horiz-adv-x="210" 
d="M105 727q-5 -27 -5 -81.5t-1 -67.5q-12 -220 -3 -348q2 -23 5.5 -68t6 -81t2.5 -68q0 -15 -15 -15t-15 15q0 32 -2.5 67.5t-6 80t-5.5 67.5q-9 130 3 352q0 6 0.5 64.5t5.5 88.5q1 6 6 9.5t11.5 2.5t10 -6t2.5 -12z" />
    <glyph glyph-name="m" unicode="m" horiz-adv-x="696" 
d="M97 466q3 -44 3 -102q20 42 48 74q36 41 72 50q46 11 80 -29q20 -24 33 -71q20 44 60 72q25 17 51 23.5t54.5 -1.5t48.5 -35q45 -58 49 -212q2 -47 -0.5 -126.5t-2.5 -92.5q0 -15 -15 -15t-15 15q0 13 2.5 92t0.5 126q-4 144 -43 195q-21 27 -52.5 27.5t-59.5 -20.5
q-31 -22 -47.5 -54t-9.5 -61q2 -9 -5 -15q3 -28 5 -61q4 -55 4 -223q0 -15 -15 -15t-15 15q0 167 -4 221q-4 71 -15 118q-12 55 -31 78q-23 27 -51 20q-27 -7 -57 -41q-28 -32 -47 -75t-19 -72q0 -8 -7 -12q-1 -48 -1 -79q0 -29 4 -89t4 -91q0 -15 -15 -15t-15 15
q0 29 -4 89t-4 91q0 11 3 143q2 86 -2 141q0 6 4 11t10 5t11 -4t5 -10z" />
    <glyph glyph-name="n" unicode="n" horiz-adv-x="460" 
d="M101 281q-1 -9 -1 -16q-2 -38 -2 -81t1 -95.5t1 -80.5q0 -15 -15 -15t-15 15q0 28 -1 81t-1 96.5t2 81.5q1 10 3.5 48.5t3 55t-0.5 45t-6 50.5q-1 6 2.5 11t9.5 6.5t11 -2t7 -9.5q6 -31 7 -69q18 30 43 51q41 34 82 35q50 0 84 -47q43 -59 45 -211q0 -45 -3 -121t-3 -97
q0 -15 -15 -15t-15 15q0 21 3 97t3 121q-2 142 -39 193q-26 35 -59 35q-31 0 -63 -28q-32 -27 -50 -66t-12 -68q2 -10 -7 -16z" />
    <glyph glyph-name="o" unicode="o" horiz-adv-x="449" 
d="M149 487v3q0 15 15 15q77 0 113 -29q37 -32 57 -109q19 -71 15 -151q-4 -86 -33 -143q-35 -68 -96 -75q-84 -10 -132 63q-40 61 -43 159q-3 94 28 171q29 70 76 96zM177 466q-47 -14 -76 -87q-29 -72 -26 -158q2 -90 38 -144q38 -57 103 -49q46 5 73 59q26 51 30 130
q4 76 -14 143q-17 67 -48 92q-21 18 -70 22q-3 -6 -10 -8z" />
    <glyph glyph-name="p" unicode="p" horiz-adv-x="475" 
d="M108 291q-1 -15 -3.5 -46t-3.5 -47q1 -2 1 -3q9 -75 42 -131q40 -68 97 -64q40 3 60 25q52 59 43 217q0 3 -1 16.5t-1 17.5t-1 16t-2 17t-2.5 15t-3 16t-4 14t-6.5 15q-23 48 -57 63t-69 2q-35 -14 -60 -50.5t-27 -85.5q0 -4 -2 -7zM98 91q0 -54 2 -156.5t2 -149.5
q0 -15 -15 -15t-15 15q0 26 -3 195t1 196q1 25 4.5 71t5 75.5t0.5 68.5t-6 72q-1 6 3 11t10 6t11 -3t6 -10q5 -32 6 -70q30 47 76.5 64.5t91.5 -2t73 -78.5q4 -8 7 -17.5t6 -21.5l4 -19q1 -7 2 -21.5t1.5 -19t1.5 -21t1 -17.5q9 -171 -51 -239q-28 -32 -80 -35
q-76 -5 -125 79q-11 19 -20 42z" />
    <glyph glyph-name="q" unicode="q" horiz-adv-x="447" 
d="M306 304q-3 62 -28.5 102.5t-59.5 52.5q-34 11 -68.5 -9t-59.5 -77q-18 -41 -24 -149q-4 -81 16 -144q26 -80 85 -94q43 -10 78 31q39 47 49 100q1 6 6 9q2 29 4.5 82t3.5 64t1 24q-3 4 -3 8zM340 454q-2 -32 -1 -91q0 -64 -1 -93q-1 -13 -4 -67.5t-3.5 -77t-2 -65
t-0.5 -76.5t4 -67q1 -9 9 -74q6 -47 6 -77q0 -15 -15 -15t-15 15q0 27 -6 73q-8 62 -9 76q-5 57 -4 128q-14 -26 -31 -46q-46 -55 -106 -41q-75 18 -107 114q-23 69 -18 156q6 114 26 159q29 65 74 91.5t92 10.5q50 -17 80 -74q1 24 2 43q0 6 5 10t11 4t10 -5t4 -11z" />
    <glyph glyph-name="r" unicode="r" horiz-adv-x="339" 
d="M79 272q-4 23 -1 47q-4 82 -12 151q-1 6 3 11t10 6t11 -3t6 -10q4 -38 7 -79l6 8q44 67 115 67q15 0 15 -15t-15 -15q-55 0 -91 -54q-21 -31 -25 -68q2 -54 2 -310q0 -15 -15 -15t-15 15q0 235 -1 264z" />
    <glyph glyph-name="s" unicode="s" horiz-adv-x="371" 
d="M237 412q-26 30 -61 39t-60 -4q-28 -11 -42 -39.5t-5 -70.5q2 -8 5 -15.5t10 -14.5l11 -11q4 -4 15 -11l16 -9q4 -3 20 -11l20 -10q46 -24 73.5 -54t31.5 -85q3 -44 -23 -80t-65 -48q-43 -14 -82.5 6.5t-61.5 77.5q-2 5 0.5 11t8 8t11.5 -0.5t8 -8.5q18 -45 47 -60t60 -6
q30 10 49.5 37.5t17.5 60.5q-3 44 -25 68.5t-63 45.5l-22 11q-20 10 -25 13t-20.5 13.5t-21.5 18t-14 20.5t-11 27q-11 52 8 90t58 54q35 16 78.5 5t75.5 -48q10 -11 -1 -21t-21 1z" />
    <glyph glyph-name="t" unicode="t" horiz-adv-x="293" 
d="M72 445q-24 3 -52 9q-6 2 -9.5 7t-2 11t6.5 9.5t11 2.5q26 -6 47 -9q5 102 13 137q2 6 7.5 9t11.5 1.5t9 -7t2 -11.5q-9 -32 -13 -131q34 -3 70 2q6 1 11 -3t6 -10t-3 -11t-10 -6q-38 -5 -75 -2q-3 -67 -3 -136q1 -105 7 -180q7 -82 19 -104q7 -11 18 -13q8 -2 33 2
q6 1 11 -3t6 -10t-3 -11t-10 -6q-29 -4 -42 -2q-25 4 -39 29q-15 27 -23 116q-6 75 -7 182q0 71 3 138z" />
    <glyph glyph-name="u" unicode="u" horiz-adv-x="470" 
d="M338 153q0 -101 29 -142q9 -12 -3 -21t-21 3q-18 25 -26 62q-11 -31 -28 -47q-26 -25 -58.5 -31.5t-61 4t-52.5 33t-36 51.5q-11 29 -17.5 59t-7 65t0.5 57t4.5 64t4.5 57q1 13 1 51q-1 34 2 55q1 6 6 10t11 3t10 -6t3 -11q-3 -19 -2 -50q0 -40 -1 -54q-1 -17 -4.5 -58.5
t-4.5 -62.5t-0.5 -54t6 -60t16.5 -53q21 -52 70 -68t90 21q19 18 30 74q10 50 14 125q1 40 1.5 85.5t-0.5 90.5t-1 56q0 15 15 15t15 -15q0 -11 1 -56.5t0.5 -91t-1.5 -86.5q-2 -38 -6 -70q1 -2 1 -4z" />
    <glyph glyph-name="v" unicode="v" horiz-adv-x="391" 
d="M49 469q1 -17 8 -42l14 -47q2 -11 7 -47q5 -27 9 -43l33 -93q22 -59 30 -98q3 -17 16 -57l1 4l14 72q49 229 81 338q1 6 6.5 9t11.5 1.5t9 -7t1 -11.5q-31 -108 -79 -336l-15 -72l-7 -35l-3 -12q-1 -2 -1.5 -3.5t-0.5 -2.5q-1 -1 -1 -2q-3 -4 -8 -6q-10 -4 -17 4
q-2 2 -4 6t-5 11q-5 12 -12 33q-13 42 -17 60q-7 37 -28 93q-29 80 -33 96q-6 16 -10 47q-5 35 -8 45q-1 6 -12 44q-9 29 -10 49q0 6 4 11t10 5t11 -4t5 -10z" />
    <glyph glyph-name="w" unicode="w" horiz-adv-x="569" 
d="M51 467q13 -43 20 -111q7 -86 11 -108q4 -23 10 -47q7 -25 17 -55.5t14 -48.5q1 -3 12 -54l3 -11l1 4q2 8 11 50q10 44 38 146q26 95 36 145q3 13 9 74v3l-1 6q-1 7 1 11q2 6 7 9q5 4 11.5 3t10.5 -6q2 -2 3 -4t2 -6q1 -5 3 -14q3 -14 6 -40q2 -12 4 -27t3.5 -24t1.5 -10
q28 -161 72 -278q3 -8 10 -25q3 19 16 95q4 20 9.5 62.5t9.5 64.5q3 18 22 90q13 54 15 87q0 6 5 10t11 4t10 -5t4 -11q-2 -35 -16 -92q-19 -77 -21 -89q-4 -21 -10 -63l-9 -64q-17 -93 -20 -125v-4v-8q-1 -16 -12 -23q-6 -4 -13 -2.5t-10 7.5q-3 4 -4 11q0 3 -0.5 5t-0.5 3
v1q-4 12 -13 33l-11 28q-45 118 -74 282q0 2 -2 20q-11 -49 -36 -141q-25 -91 -37 -145q-10 -44 -12 -52q-6 -20 -12 -31q-4 -8 -9 -13q-10 -8 -21 -4q-5 1 -7 6l-2 2q0 1 -0.5 2.5t-1.5 3.5q-1 4 -2 11l-7 32q-11 50 -11 52l-15 47l-16 58q-8 26 -12 50q-3 19 -11 109
q-6 65 -18 106q-2 6 1 11.5t9 7t11.5 -1.5t6.5 -9z" />
    <glyph glyph-name="x" unicode="x" horiz-adv-x="413" 
d="M25 6q9 34 51 109l68 129q-65 122 -105 222q-2 6 0.5 12t8 8t11.5 -0.5t8 -7.5q38 -95 94 -202l65 121q4 8 19 41q13 26 24 42q9 12 21 3t3 -21q-9 -13 -20 -37q-16 -34 -21 -42l-74 -139l133 -235q7 -13 -6 -20t-20 6l-124 217l-59 -111q-40 -72 -49 -103q-1 -6 -6.5 -9
t-11.5 -1.5t-9 7t-1 11.5z" />
    <glyph glyph-name="y" unicode="y" horiz-adv-x="396" 
d="M296 460q-2 -26 -9.5 -53.5t-19 -59t-16.5 -47.5q-10 -37 -22 -97q-17 -87 -19 -98q-7 -32 -25 -88l-3 -12v-3q1 -9 -6 -14q-10 -32 -15 -56q-2 -6 -6 -23l-7 -28q-2 -11 -7 -27t-10 -28q-30 -67 -91 -70q-6 0 -11 4t-5 10t4 11t10 5q43 2 65 52q5 11 9.5 25.5l7.5 24.5
l6 27q4 17 5 25q7 25 20 68q-2 15 -7 33.5t-9 30.5l-12 34l-11 32q-27 78 -71 244q0 3 -10.5 36.5t-13.5 51.5q-1 6 3 11t10 6t11 -3t6 -10q2 -17 11 -46l13 -38q43 -165 69 -242q1 -2 12 -34l17 -49q7 25 11 46q3 9 20 98q12 61 23 99q5 20 16 50.5t18 55t9 48.5
q1 6 5.5 10t10.5 3.5t10 -5t4 -10.5z" />
    <glyph glyph-name="z" unicode="z" horiz-adv-x="358" 
d="M44 473q78 -5 129 -9q33 -2 51 -4q10 -1 16 -2q4 -1 6 -2t4 -1q6 -4 8 -10q1 -7 -1 -15q-2 -6 -5 -13q-6 -12 -16 -30q-15 -26 -31 -49q-14 -21 -28.5 -49.5t-21.5 -43.5l-25 -57q-19 -42 -21 -48q-2 -3 -13 -27l-20 -41q-10 -24 -15 -37q-1 -3 -1 -4q6 -1 16 -2
q18 -1 59 -3q99 -5 106 -6t10.5 -6t2.5 -11.5t-6 -10t-11 -2.5q-7 1 -103 6q-41 2 -60 3q-14 1 -22 2q-4 1 -7 1q-6 1 -9 4q-9 7 -7 21q0 7 4 17q5 15 16 41q7 16 19 40t13 27l17 39l19 44q7 16 18 39t22.5 42.5t23.5 37.5q15 23 29 48q9 16 14 27v1h-3q-18 2 -50 5
q-51 3 -129 8q-6 0 -10 5t-4 11t5 10t11 4z" />
    <glyph glyph-name="braceleft" unicode="{" horiz-adv-x="293" 
d="M165 693q-5 0 -16 1h-15q-16 0 -23 -3q-12 -6 -21 -31q-8 -23 -13 -61q-7 -56 -5 -118q0 -6 9 -67q6 -46 -2 -75q-10 -41 -50 -68v-1l9 -8q5 -6 6 -7q22 -28 30 -73q5 -30 4 -99q-1 -74 2 -106q5 -54 26 -82q23 -32 73 -34q6 0 10 -5t4 -11t-5 -10t-11 -4q-63 3 -96 47
q-25 34 -31 96q-3 33 -2 110q1 66 -4 92q-7 38 -24 61l-3 3l-9 9l-10 10l-4 6q-3 6 -3 11q1 13 16 18l4 1q31 22 40 52q6 23 0 62q-9 64 -9 70q-2 66 5 124q5 41 15 68q13 35 35 46q14 7 37 7h17q10 -1 14 -1q15 0 15 -15t-15 -15z" />
    <glyph glyph-name="bar" unicode="|" horiz-adv-x="224" 
d="M116 722q0 -161 4 -483.5t4 -483.5q0 -15 -15 -15t-15 15q0 161 -4 483.5t-4 483.5q0 15 15 15t15 -15z" />
    <glyph glyph-name="braceright" unicode="}" horiz-adv-x="343" 
d="M46 711q28 10 43 13q35 5 53 -15q15 -16 22 -51q5 -26 6 -65q1 -27 0 -71.5t-1 -47.5q0 -13 -1 -37.5t-1 -37.5t3 -31t11 -32q15 -25 41 -41l2 -1h3q5 -1 9 -4q9 -7 7 -18q-3 -11 -17 -22q-3 -3 -10.5 -8t-11.5 -8q-26 -20 -29 -38q-6 -31 0 -96q8 -87 8 -108
q1 -63 -22 -99q-28 -46 -93 -59q-6 -1 -11.5 2.5t-6.5 9.5t2.5 11.5t9.5 6.5q53 10 74 44q17 29 17 84q0 15 -8 106q-6 68 0 104q5 29 41 56l18 13q-31 19 -49 51q-10 16 -14 38.5t-4 38t1 41t1 34.5q0 3 1 47q1 42 0 71q-1 36 -6 61q-5 26 -14 36q-7 8 -26 5
q-13 -2 -38 -11q-6 -2 -11.5 0.5t-7.5 8.5t0.5 11.5t8.5 7.5z" />
    <glyph glyph-name="asciitilde" unicode="~" horiz-adv-x="671" 
d="M90 258q45 95 120 96q46 1 132 -43q3 -2 9 -5q76 -39 108 -43q53 -5 84 57q6 13 19.5 6.5t6.5 -20.5q-40 -81 -114 -72q-7 0 -13.5 1.5t-14.5 4.5l-14 4q-6 2 -15 6l-14 6l-14 7l-14 7l-14 8q-11 5 -14 6q-79 41 -117 40q-57 -1 -93 -78q-7 -14 -20.5 -7.5t-7.5 19.5z
" />
    <glyph glyph-name="quoteleft" unicode="&#x2018;" horiz-adv-x="227" 
d="M127 702q0 -52 -24.5 -151.5t-25.5 -104.5q-1 -6 -6.5 -9.5t-11.5 -2.5t-9.5 6.5t-2.5 11.5q3 14 26.5 107t23.5 143q0 15 15 15t15 -15z" />
    <glyph glyph-name="quoteright" unicode="&#x2019;" horiz-adv-x="227" 
d="M126 694q-67 -166 -72 -254q0 -6 -5 -10t-11 -4t-10 5t-4 11q6 93 74 264q2 5 8 7.5t11.5 0.5t8 -8t0.5 -12z" />
    <glyph glyph-name="quotedblleft" unicode="&#x201c;" horiz-adv-x="324" 
d="M107 693q0 -91 -42 -229q-1 -6 -6.5 -9t-11.5 -1.5t-9 7t-1 11.5q40 135 40 221q0 15 15 15t15 -15zM223 684q-5 -18 -11 -58q-6 -43 -10 -62q-5 -16 -15 -42q-10 -28 -14 -38q-2 -6 -7.5 -9t-11 -1t-8.5 7.5t-1 10.5q3 12 14 41q10 24 13 39q5 17 11 58q5 40 12 62
q1 6 6.5 9t11.5 1.5t9 -7t1 -11.5z" />
    <glyph glyph-name="quotedblright" unicode="&#x201d;" horiz-adv-x="321" 
d="M122 686q-7 -45 -26 -127t-24 -108q-2 -6 -7 -9.5t-11 -2t-9.5 6.5t-2.5 11l24 107q19 82 26 126q1 7 6 10.5t11.5 2.5t10 -6t2.5 -11zM221 689q-15 -109 -44 -227q-2 -6 -7.5 -9t-11.5 -1.5t-9 7t-2 11.5q30 116 44 223q1 6 6 10t11 3t10 -6t3 -11z" />
    <glyph glyph-name="uni3000" unicode="&#x3000;" horiz-adv-x="1000" 
 />
  </font>
</defs>
</svg>
